<?xml version="1.0" encoding="utf-8"?>
<!-- Generator: Adobe Illustrator 19.2.0, SVG Export Plug-In . SVG Version: 6.00 Build 0)  -->
<svg version="1.1" id="Camada_2" xmlns="http://www.w3.org/2000/svg" xmlns:xlink="http://www.w3.org/1999/xlink" x="0px" y="0px"
	 viewBox="0 0 394.1 134" style="enable-background:new 0 0 394.1 134;" xml:space="preserve">
<title>dafiti</title>
<path d="M85.1,47.8c-19.9-19.4-51.7-18.9-71,0.9s-18.9,51.7,0.9,71c19.5,19,50.6,19,70.1,0v12.6h15.2V0H85.1V47.8z M50.1,118.5
	c-19.2,0-34.7-15.5-34.7-34.6S30.8,49.2,50,49.1c19.2,0,34.7,15.5,34.7,34.6l0,0C84.8,102.9,69.3,118.5,50.1,118.5L50.1,118.5z"/>
<rect x="288.6" y="35" width="15.2" height="97.3"/>
<rect x="378.9" y="35" width="15.2" height="97.3"/>
<rect x="288.6" width="15.2" height="15.7"/>
<rect x="378.9" width="15.2" height="15.7"/>
<path d="M195.8,47.8c-19.9-19.4-51.7-18.9-71,0.9s-18.9,51.7,0.9,71c19.5,19,50.6,19,70.1,0v12.6H211V35h-15.2V47.8z M160.8,118.5
	c-19.2,0-34.7-15.5-34.7-34.6c0-19.2,15.5-34.7,34.6-34.7c19.2,0,34.7,15.5,34.7,34.6c0,0,0,0,0,0.1
	C195.4,102.9,179.9,118.5,160.8,118.5L160.8,118.5z"/>
<path d="M277.1,16.2V0.5c-19.1,2.7-35,16.1-40.8,34.5h-15.4v15.2H235v82.2h15.2V50.2h28V35H253C257.6,25.3,266.5,18.4,277.1,16.2z"
	/>
<path d="M340.8,0h-15.6v35h-11.1v15.2h11.1v37.3c1.7,23.7,19.9,43,43.5,46.1v-15.7c-14.9-2.8-26.2-15-28-30c0-0.1,0-0.7,0-0.7v-37
	h28V35h-28L340.8,0L340.8,0z"/>
</svg>
