<?xml version="1.0" encoding="UTF-8"?>
<svg xmlns="http://www.w3.org/2000/svg" xmlns:xlink="http://www.w3.org/1999/xlink" width="16px" height="16px" viewBox="0 0 16 16" version="1.1">
<g id="surface1">
<path style=" stroke:none;fill-rule:nonzero;fill:rgb(0%,0%,0%);fill-opacity:1;" d="M 12 0.472656 C 10.332031 0.472656 9.074219 1.449219 8 2.472656 C 6.976562 1.386719 5.667969 0.472656 4 0.472656 C 1.652344 0.472656 0 2.492188 0 4.691406 C 0 5.871094 0.484375 6.722656 1.011719 7.519531 L 7.230469 14.972656 C 7.925781 15.710938 8.058594 15.710938 8.757812 14.972656 L 14.988281 7.519531 C 15.609375 6.722656 16 5.871094 16 4.691406 C 16 2.492188 14.347656 0.472656 12 0.472656 Z M 14 7.3125 L 8 14.472656 L 2 7.285156 C 1.28125 6.285156 1 5.613281 1 4.691406 C 1 2.972656 2.226562 1.425781 4 1.410156 C 5.457031 1.398438 7.109375 2.886719 8 4.007812 C 8.867188 2.925781 10.542969 1.410156 12 1.410156 C 13.726562 1.410156 15 2.972656 15 4.691406 C 15 5.613281 14.777344 6.335938 14 7.3125 Z M 14 7.3125 "/>
</g>
</svg>
