<?xml version="1.0" encoding="UTF-8"?>
<svg xmlns="http://www.w3.org/2000/svg" xmlns:xlink="http://www.w3.org/1999/xlink" width="16px" height="16px" viewBox="0 0 16 16" version="1.1">
<g id="surface1">
<path style=" stroke:none;fill-rule:nonzero;fill:rgb(0%,0%,0%);fill-opacity:1;" d="M 7.90625 8.054688 C 6.210938 8.054688 4.847656 6.691406 4.847656 4.996094 C 4.847656 3.300781 6.210938 1.9375 7.90625 1.9375 C 9.601562 1.9375 10.964844 3.300781 10.964844 4.996094 C 10.964844 6.691406 9.601562 8.054688 7.90625 8.054688 Z M 7.90625 2.878906 C 6.730469 2.878906 5.789062 3.820312 5.789062 4.996094 C 5.789062 6.171875 6.730469 7.113281 7.90625 7.113281 C 9.082031 7.113281 10.023438 6.171875 10.023438 4.996094 C 10.023438 3.820312 9.082031 2.878906 7.90625 2.878906 Z M 7.90625 2.878906 "/>
<path style=" stroke:none;fill-rule:nonzero;fill:rgb(0%,0%,0%);fill-opacity:1;" d="M 3.765625 11.773438 L 3.765625 13.804688 C 3.765625 14.039062 2.824219 14.039062 2.824219 13.804688 L 2.824219 11.773438 C 2.824219 9.914062 5.105469 8.480469 8 8.480469 C 10.894531 8.480469 13.175781 9.914062 13.175781 11.773438 L 13.175781 13.804688 C 13.175781 14.039062 12.234375 14.039062 12.234375 13.804688 L 12.234375 11.773438 C 12.234375 10.503906 10.304688 9.421875 8 9.421875 C 5.695312 9.421875 3.765625 10.503906 3.765625 11.773438 Z M 3.765625 11.773438 "/>
</g>
</svg>
